<svg width="68" height="68" viewBox="0 0 68 68" fill="none" xmlns="http://www.w3.org/2000/svg">
<path d="M65.6552 53.9308H2.34483C1.05221 53.9308 0 54.983 0 56.2757V58.6205C0 59.9132 1.05221 60.9654 2.34483 60.9654H7.03448V65.6551C7.03448 66.9478 8.08669 68 9.37931 68H16.4138C17.7064 68 18.7586 66.9478 18.7586 65.6551V60.9654H49.2414V65.6551C49.2414 66.9478 50.2936 68 51.5862 68H58.6207C59.9133 68 60.9655 66.9478 60.9655 65.6551V60.9654H65.6552C66.9478 60.9654 68 59.9132 68 58.6205V56.2757C68 54.983 66.9478 53.9308 65.6552 53.9308ZM16.4138 65.6551H9.37931V60.9654H16.4138V65.6551ZM58.6207 65.6551H51.5862V60.9654H58.6207V65.6551ZM2.34483 58.6205V56.2757H65.6552V58.6205H2.34483ZM8.2069 49.2411H22.2759C23.1786 49.2411 23.9964 48.8893 24.6207 48.3265C25.245 48.8893 26.0628 49.2411 26.9655 49.2411H41.0345C41.9372 49.2411 42.755 48.8893 43.3793 48.3265C44.0036 48.8893 44.8214 49.2411 45.7241 49.2411H59.7931C61.7334 49.2411 63.3103 47.6641 63.3103 45.7238V33.9994C63.3103 32.0591 61.7334 30.4821 59.7931 30.4821H45.7241C44.8214 30.4821 44.0036 30.8339 43.3793 31.3967C42.755 30.8339 41.9372 30.4821 41.0345 30.4821H26.9655C26.0628 30.4821 25.245 30.8339 24.6207 31.3967C23.9964 30.8339 23.1786 30.4821 22.2759 30.4821H8.2069C6.26658 30.4821 4.68965 32.0591 4.68965 33.9994V45.7238C4.68965 47.6641 6.26658 49.2411 8.2069 49.2411ZM53.9314 32.827V37.5167H51.5866V32.827H53.9314ZM45.7241 32.827H49.2414V37.5167C49.2414 38.8094 50.2936 39.8616 51.5862 39.8616H53.931C55.2237 39.8616 56.2759 38.8094 56.2759 37.5167V32.827H59.7931C60.4409 32.827 60.9655 33.3517 60.9655 33.9994V45.7238C60.9655 46.3715 60.4409 46.8962 59.7931 46.8962H45.7241C45.0764 46.8962 44.5517 46.3715 44.5517 45.7238V33.9994C44.5517 33.3517 45.0764 32.827 45.7241 32.827ZM35.1728 32.827V37.5167H32.828V32.827H35.1728ZM26.9655 32.827H30.4828V37.5167C30.4828 38.8094 31.535 39.8616 32.8276 39.8616H35.1724C36.465 39.8616 37.5172 38.8094 37.5172 37.5167V32.827H41.0345C41.6822 32.827 42.2069 33.3517 42.2069 33.9994V45.7238C42.2069 46.3715 41.6822 46.8962 41.0345 46.8962H26.9655C26.3178 46.8962 25.7931 46.3715 25.7931 45.7238V33.9994C25.7931 33.3517 26.3178 32.827 26.9655 32.827ZM16.4142 32.827V37.5167H14.0664V32.827H16.4142ZM7.03486 33.9994C7.03486 33.3517 7.55951 32.827 8.20727 32.827H11.7245V37.5167C11.7245 38.8094 12.7767 39.8616 14.0693 39.8616H16.4142C17.7068 39.8616 18.759 38.8094 18.759 37.5167V32.827H22.2762C22.924 32.827 23.4487 33.3517 23.4487 33.9994V45.7238C23.4487 46.3715 22.924 46.8962 22.2762 46.8962H8.20727C7.55951 46.8962 7.03486 46.3715 7.03486 45.7238V33.9994ZM19.2925 13.9566H35.7063V16.1872C35.7063 17.1018 36.2192 17.9107 37.0428 18.3035C37.3681 18.4588 37.714 18.535 38.057 18.535C38.5816 18.535 39.0975 18.3562 39.5283 18.0104L48.0755 11.09C48.6295 10.6416 48.943 9.97913 48.946 9.26982C48.946 8.55757 48.6295 7.89516 48.0785 7.44668L39.5313 0.526356C38.822 -0.0481326 37.8695 -0.162449 37.0458 0.233252C36.2221 0.626019 35.7093 1.43795 35.7093 2.34948V4.58007H19.2955C18.0029 4.58007 16.9507 5.6323 16.9507 6.92494V11.6147C16.9507 12.9073 18.0029 13.9595 19.2955 13.9595L19.2925 13.9566ZM19.2925 6.92205H36.8791C37.5268 6.92205 38.0515 6.39738 38.0515 5.74962V2.3466L46.5987 9.26692L38.0515 16.1902V12.7871C38.0515 12.1394 37.5268 11.6147 36.8791 11.6147H19.2925V6.92205Z" fill="white"/>
</svg>
