<svg width="29" height="29" viewBox="0 0 29 29" fill="none" xmlns="http://www.w3.org/2000/svg">
<path d="M28 22.9999H1C0.448736 22.9999 0 23.4486 0 23.9999V24.9999C0 25.5512 0.448736 26 1 26H3V28C3 28.5513 3.44874 29 4 29H7C7.55126 29 8 28.5513 8 28V26H21V28C21 28.5513 21.4487 29 22 29H25C25.5513 29 26 28.5513 26 28V26H28C28.5513 26 29 25.5512 29 24.9999V23.9999C29 23.4486 28.5513 22.9999 28 22.9999ZM7 28H4V26H7V28ZM25 28H22V26H25V28ZM1 24.9999V23.9999H28V24.9999H1ZM3.5 20.9999H9.5C9.88499 20.9999 10.2338 20.8499 10.5 20.6098C10.7662 20.8498 11.115 20.9999 11.5 20.9999H17.5C17.885 20.9999 18.2338 20.8499 18.5 20.6098C18.7662 20.8498 19.115 20.9999 19.5 20.9999H25.5C26.3275 20.9999 27 20.3273 27 19.4998V14.4998C27 13.6723 26.3275 12.9997 25.5 12.9997H19.5C19.115 12.9997 18.7662 13.1497 18.5 13.3898C18.2337 13.1498 17.885 12.9997 17.5 12.9997H11.5C11.115 12.9997 10.7662 13.1497 10.5 13.3898C10.2338 13.1498 9.88499 12.9997 9.5 12.9997H3.5C2.67251 12.9997 2 13.6723 2 14.4998V19.4998C2 20.3273 2.67251 20.9999 3.5 20.9999ZM23.0002 13.9998V15.9998H22.0002V13.9998H23.0002ZM19.5 13.9998H21V15.9998C21 16.5511 21.4487 16.9998 22 16.9998H23C23.5513 16.9998 24 16.5511 24 15.9998V13.9998H25.5C25.7762 13.9998 26 14.2235 26 14.4998V19.4998C26 19.7761 25.7762 19.9999 25.5 19.9999H19.5C19.2238 19.9999 19 19.7761 19 19.4998V14.4998C19 14.2235 19.2238 13.9998 19.5 13.9998ZM15.0002 13.9998V15.9998H14.0002V13.9998H15.0002ZM11.5 13.9998H13V15.9998C13 16.5511 13.4487 16.9998 14 16.9998H15C15.5513 16.9998 16 16.5511 16 15.9998V13.9998H17.5C17.7762 13.9998 18 14.2235 18 14.4998V19.4998C18 19.7761 17.7762 19.9999 17.5 19.9999H11.5C11.2238 19.9999 11 19.7761 11 19.4998V14.4998C11 14.2235 11.2238 13.9998 11.5 13.9998ZM7.00016 13.9998V15.9998H5.99891V13.9998H7.00016ZM3.00016 14.4998C3.00016 14.2235 3.22391 13.9998 3.50016 13.9998H5.00016V15.9998C5.00016 16.5511 5.4489 16.9998 6.00016 16.9998H7.00016C7.55142 16.9998 8.00016 16.5511 8.00016 15.9998V13.9998H9.50016C9.77641 13.9998 10.0002 14.2235 10.0002 14.4998V19.4998C10.0002 19.7761 9.77641 19.9999 9.50016 19.9999H3.50016C3.22391 19.9999 3.00016 19.7761 3.00016 19.4998V14.4998ZM8.22768 5.9521H15.2277V6.90338C15.2277 7.2934 15.4464 7.6384 15.7977 7.80589C15.9364 7.87214 16.0839 7.90464 16.2302 7.90464C16.4539 7.90464 16.6739 7.82839 16.8577 7.68089L20.5028 4.72957C20.739 4.53832 20.8728 4.25581 20.874 3.95331C20.874 3.64955 20.739 3.36706 20.5041 3.17579L16.8589 0.224475C16.5564 -0.0205271 16.1502 -0.0692799 15.7989 0.0994749C15.4477 0.266979 15.229 0.613243 15.229 1.00199V1.95327H8.22896C7.6777 1.95327 7.22896 2.40201 7.22896 2.95328V4.95332C7.22896 5.50459 7.6777 5.95333 8.22896 5.95333L8.22768 5.9521ZM8.22768 2.95205H15.7278C16.0041 2.95205 16.2278 2.7283 16.2278 2.45204V1.00075L19.873 3.95207L16.2278 6.90463V5.45334C16.2278 5.17709 16.0041 4.95333 15.7278 4.95333H8.22768V2.95205Z" fill="white"/>
</svg>
