<svg width="33" height="22" viewBox="0 0 33 22" fill="none" xmlns="http://www.w3.org/2000/svg">
<path d="M20.8624 2.84399V4.83738H18.2729V11.2551H19.641V13.3457L21.9861 11.2551H27.9467V9.31034H28.0444L30.585 11.5468V9.31034H32.0508V2.84399H20.8624ZM27.165 10.5258H21.693L20.3738 11.7413V10.5258H19.0058V5.56667H20.8624V9.31034H27.165V10.5258ZM31.269 8.58105H29.8033V9.94239L28.2887 8.58105H21.5953V3.57328H31.269V8.58105Z" fill="white"/>
<path d="M23.403 7.17117C24.0382 7.17117 24.5267 6.68498 24.5267 6.05293C24.5267 5.42088 24.0382 4.93469 23.403 4.93469C22.7679 4.93469 22.2793 5.42088 22.2793 6.05293C22.2793 6.68498 22.7679 7.17117 23.403 7.17117ZM23.403 5.66398C23.5984 5.66398 23.7939 5.85846 23.7939 6.05293C23.7939 6.24741 23.5984 6.44189 23.403 6.44189C23.2076 6.44189 23.0122 6.24741 23.0122 6.05293C23.0122 5.85846 23.2076 5.66398 23.403 5.66398Z" fill="white"/>
<path d="M26.4318 7.17117C27.067 7.17117 27.5556 6.68498 27.5556 6.05293C27.5556 5.42088 27.067 4.93469 26.4318 4.93469C25.7967 4.93469 25.3081 5.42088 25.3081 6.05293C25.3081 6.68498 25.7967 7.17117 26.4318 7.17117ZM26.4318 5.66398C26.6273 5.66398 26.8227 5.85846 26.8227 6.05293C26.8227 6.24741 26.6273 6.44189 26.4318 6.44189C26.2364 6.44189 26.041 6.24741 26.041 6.05293C26.041 5.85846 26.2364 5.66398 26.4318 5.66398Z" fill="white"/>
<path d="M29.4611 7.17117C30.0963 7.17117 30.5848 6.68498 30.5848 6.05293C30.5848 5.42088 30.0963 4.93469 29.4611 4.93469C28.826 4.93469 28.3374 5.42088 28.3374 6.05293C28.3374 6.68498 28.8748 7.17117 29.4611 7.17117ZM29.4611 5.66398C29.6566 5.66398 29.852 5.85846 29.852 6.05293C29.852 6.24741 29.6566 6.44189 29.4611 6.44189C29.2657 6.44189 29.0703 6.24741 29.0703 6.05293C29.0703 5.85846 29.2657 5.66398 29.4611 5.66398Z" fill="white"/>
<path d="M19.0056 14.5126L14.9504 13.5889L13.8267 12.0817C14.9015 11.2065 15.7321 9.89383 15.8298 8.43526C16.2207 8.14354 17.1001 7.2684 17.0513 6.39325C17.0513 5.51811 16.465 5.37225 16.2207 5.37225L16.3673 4.15677C16.465 2.40648 15.5855 1.82305 15.097 1.62858C14.8038 1.53134 14.5107 1.38548 14.1687 1.14238C11.9212 -0.121714 10.7486 -0.0244753 10.5044 0.0241438C8.35463 0.0241438 7.62177 1.09376 7.42634 1.57996C5.5209 1.82305 5.61861 3.7192 5.66747 4.64296C5.66747 4.78882 5.66747 4.93468 5.66747 5.03192C5.66747 5.08053 5.66747 5.17777 5.66747 5.22639C5.66747 5.27501 5.66747 5.32363 5.66747 5.37225C5.66747 5.42087 5.66747 5.46949 5.66747 5.51811C5.37432 5.56673 4.93461 5.7612 4.93461 6.53911C4.93461 7.46287 5.81404 8.2894 6.2049 8.58111C6.30261 9.99107 7.13319 11.3038 8.20806 12.1303L7.08433 13.7347L3.42002 14.5613C2.14973 14.853 1.17258 15.874 0.928292 17.1381L0 22H22.5233L21.595 17.1381C21.253 15.8254 20.2759 14.853 19.0056 14.5126ZM7.67062 2.21201H7.96377L8.01263 1.92029C8.01263 1.92029 8.25691 0.656193 10.5044 0.656193H10.5532C10.5532 0.656193 10.6021 0.656193 10.6998 0.656193C11.0418 0.656193 12.0678 0.753431 13.7778 1.72581C14.1687 1.96891 14.5107 2.11477 14.8038 2.26062C15.1947 2.40648 15.6833 2.89267 15.6344 4.05953L15.5367 4.78882C14.5107 3.96229 13.1427 4.10815 12.4098 4.39987C9.82035 4.88606 8.98978 4.7402 8.06148 4.54572C7.8172 4.49711 7.52405 4.44849 7.23091 4.39987C6.84005 4.35125 6.49804 4.35125 6.25376 4.44849C6.30261 3.23301 6.40033 2.30924 7.67062 2.21201ZM6.84005 8.33802V8.14354L6.69347 8.0463C6.40033 7.80321 5.56975 7.07392 5.61861 6.49049C5.61861 6.19878 5.71632 6.19878 5.76518 6.19878C5.96061 6.19878 6.10718 6.10154 6.25376 6.0043C6.35147 5.85844 6.40033 5.71258 6.40033 5.56673C6.40033 5.46949 6.35147 5.37225 6.35147 5.27501C6.35147 5.27501 6.5469 5.12915 7.18205 5.17777C7.47519 5.22639 7.71948 5.27501 7.96377 5.32363C8.94092 5.51811 9.86921 5.71258 12.6052 5.17777H12.6541C12.7518 5.12915 14.5107 4.44849 15.4878 5.95568C15.4878 6.0043 15.4878 6.0043 15.5367 6.05292C15.6344 6.15016 15.781 6.19878 15.9275 6.19878H16.0253C16.0741 6.19878 16.0741 6.19878 16.123 6.19878C16.1718 6.19878 16.2695 6.19878 16.2695 6.49049C16.2695 7.07392 15.439 7.85183 15.1947 8.0463L15.0481 8.14354V8.33802C15.0481 10.6231 12.8007 12.5679 10.9441 12.5679C9.38064 12.4706 6.8889 10.6717 6.84005 8.33802ZM10.9929 13.1999C11.7258 13.1999 12.5564 12.9568 13.2404 12.5193L14.3641 14.0265L12.4587 21.1249L12.0189 16.6033L12.7518 15.3392C12.8007 15.2419 12.8007 15.0961 12.7518 14.9988C12.7029 14.9016 12.5564 14.8044 12.4587 14.8044H9.52721C9.38064 14.8044 9.28292 14.853 9.23406 14.9988C9.18521 15.0961 9.18521 15.2419 9.23406 15.3392L9.96693 16.6033L9.52721 21.1249L7.62177 14.1237L8.74549 12.5193C9.47835 12.9082 10.2601 13.1999 10.9929 13.1999ZM10.1624 15.485H11.8235L11.4327 16.1171H10.5044L10.1624 15.485ZM0.830577 21.2707L1.56344 17.2839C1.75887 16.2629 2.49173 15.485 3.51774 15.2419L6.93776 14.464L8.79435 21.2707H0.830577ZM10.2112 21.2707L10.6021 16.8464H11.3349L11.7258 21.2707H10.2112ZM13.1427 21.2707L14.9992 14.3668L18.8101 15.2419C19.7873 15.485 20.569 16.2629 20.7644 17.2353L21.5461 21.2707H13.1427Z" fill="white"/>
</svg>
