<svg width="16" height="16" viewBox="0 0 16 16" fill="none" xmlns="http://www.w3.org/2000/svg">
<path d="M7.42531 10.4545C7.40193 10.4463 7.37959 10.4402 7.35881 10.4358L7.31595 10.393H7.25442L7.25433 10.3929L7.25371 10.3923L7.25356 10.3921L7.2534 10.392L7.25309 10.3916L7.25246 10.391L7.25117 10.3897L7.24983 10.3884L7.24915 10.3877L7.24898 10.3875L7.24881 10.3874L7.24846 10.387L7.24704 10.3856L7.10059 10.2391H7.08152L5.00097 7.74247C4.86643 7.58103 4.87623 7.31145 5.06141 7.15337C5.22344 7.0197 5.49292 7.03039 5.65036 7.21646L5.65029 7.21651L5.65657 7.22365L7.2256 9.00804L7.57765 9.40841L7.95464 9.03142L13.1847 3.80133L13.1924 3.79365L13.1998 3.78564C13.3318 3.64157 13.5869 3.61847 13.7698 3.80133L13.7774 3.80901L13.7855 3.81635C13.9295 3.94841 13.9526 4.20351 13.7698 4.38636L7.82469 10.3314H7.76316L7.65174 10.4429C7.64981 10.4438 7.64789 10.4447 7.64598 10.4456C7.63489 10.4485 7.62447 10.4515 7.61481 10.4545H7.42531ZM7.42531 10.4545C7.44416 10.4611 7.46368 10.4692 7.48362 10.479C7.49212 10.4811 7.49927 10.4829 7.50445 10.4842L7.507 10.4848C7.5073 10.4849 7.5076 10.485 7.50789 10.485M0.876705 5.69688L0.878066 5.69271C2.14673 1.74255 6.38471 -0.420399 10.3357 0.876637C10.535 0.943608 10.6716 1.18493 10.6017 1.41731C10.5329 1.61545 10.2914 1.75028 10.0596 1.679C6.57015 0.55084 2.81163 2.44467 1.67995 5.93956C0.549776 9.42981 2.44369 13.1901 5.93956 14.3221C9.42898 15.452 13.1883 13.5593 14.3213 10.065C14.3891 9.86481 14.6329 9.7282 14.8664 9.80118C15.083 9.86887 15.1939 10.0996 15.1257 10.3041L15.1257 10.3041L15.1236 10.3107C14.1153 13.4797 11.1756 15.5 8.00103 15.5C7.25262 15.5 6.4755 15.3849 5.69793 15.1257L5.69794 15.1257L5.69271 15.124C1.74079 13.8548 -0.41991 9.61554 0.876705 5.69688Z" stroke="url(#paint0_linear_3_6)"/>
<defs>
<linearGradient id="paint0_linear_3_6" x1="7.82279" y1="0" x2="7.82279" y2="16" gradientUnits="userSpaceOnUse">
<stop stop-color="#D0202F"/>
<stop offset="1" stop-color="#5D2C70"/>
</linearGradient>
</defs>
</svg>
