<svg width="21" height="28" viewBox="0 0 21 28" fill="none" xmlns="http://www.w3.org/2000/svg">
<path d="M20.5 12C20.2236 12 20 12.2236 20 12.5V15C20 15.5518 19.5513 16 19 16C18.4487 16 18 15.5518 18 15V11.5742C18 11.2978 17.7764 11.0742 17.5 11.0742H15.4518L13.9912 3.4062C13.9463 3.1709 13.7402 3 13.5 3H12V1.5C12 0.6729 11.3271 0 10.5 0H7.49998C6.67288 0 5.99998 0.6729 5.99998 1.5V3H4.49998C4.25978 3 4.05368 3.1709 4.00878 3.4063L0.00877885 24.4063C-0.0190212 24.5528 0.0199788 24.7042 0.114779 24.8184C0.209979 24.9336 0.351079 25 0.499979 25H4.99998V27.5C4.99998 27.7764 5.22358 28 5.49998 28H12.5C12.7764 28 13 27.7764 13 27.5V25H17.5C17.6489 25 17.79 24.9336 17.8853 24.8184C17.98 24.7041 18.0191 24.5528 17.9913 24.4063L15.6424 12.0743H17V15C17 16.1025 17.897 17 19 17C20.103 17 21 16.1025 21 15V12.5C21 12.2236 20.7764 12 20.5 12ZM15.4449 16.3821L9.56748 17.9481L7.51318 16.813L15.1399 14.7804L15.4449 16.3821ZM14.9521 13.795L6.28268 16.1055C6.27278 16.1081 6.26588 16.1154 6.25628 16.1186L4.19568 14.98L14.6473 12.1944L14.9521 13.795ZM11.5 4H13.0864L13.2765 4.9978L11.4714 4H11.5ZM6.99998 1.5C6.99998 1.2246 7.22408 1 7.49998 1H10.5C10.7759 1 11 1.2246 11 1.5V3H6.99998V1.5ZM6.49998 4H9.42048C9.43118 4.0071 9.43778 4.0181 9.44918 4.0244L13.5196 6.2744L13.915 8.35L6.04078 4H6.49998ZM4.82408 4.4699L14.1581 9.6263L14.4596 11.2089L13.9191 11.3529L4.50388 6.1506L4.82408 4.4699ZM4.30708 7.184L12.5247 11.7246L10.2572 12.329L3.98698 8.8648L4.30708 7.184ZM3.79008 9.8982L8.86268 12.7007L6.59368 13.3054L3.46978 11.5794L3.79008 9.8982ZM3.27298 12.6128L5.19928 13.6771L2.95638 14.2749L3.27298 12.6128ZM1.10398 24L1.20498 23.4697L2.16468 24H1.10398ZM4.21428 24C4.20228 23.9919 4.19498 23.9798 4.18208 23.9727L1.40178 22.4364L1.72208 20.755L7.59428 24H5.49998H4.21428ZM12 27H5.99998V25H12V27ZM12.5 24H9.67458L1.91888 19.7216L2.23898 18.0414L13.0237 24H12.5ZM16.896 24H15.0965C15.0742 23.9886 2.43578 17.0081 2.43578 17.0081L2.74868 15.3658L2.80548 15.3507C2.80998 15.3533 16.7128 23.0382 16.7128 23.0382L16.896 24ZM16.4697 21.7617L14.4944 20.6703L16.1765 20.2224L16.4697 21.7617ZM15.9888 19.2372L13.2301 19.9718L10.8319 18.6467L15.6326 17.3676L15.9888 19.2372Z" fill="white"/>
</svg>
